<?xml version="1.0" standalone="no"?>
<!DOCTYPE svg PUBLIC "-//W3C//DTD SVG 20010904//EN"
 "http://www.w3.org/TR/2001/REC-SVG-20010904/DTD/svg10.dtd">
<svg version="1.0" xmlns="http://www.w3.org/2000/svg"
 width="612.000000pt" height="612.000000pt" viewBox="0 0 612.000000 612.000000"
 preserveAspectRatio="xMidYMid meet">

<g transform="translate(0.000000,612.000000) scale(0.100000,-0.100000)"
fill="#000000" stroke="none">
<path d="M0 5720 l0 -400 40 0 c38 0 40 2 40 30 l0 30 80 0 80 0 0 50 0 50 80
0 c64 0 80 3 80 15 0 11 11 15 40 15 36 0 40 -2 40 -25 0 -22 4 -25 40 -25 22
0 40 5 40 10 0 6 -13 10 -30 10 -28 0 -30 2 -30 40 0 22 -4 40 -10 40 -5 0
-10 7 -10 15 0 11 11 15 40 15 29 0 40 4 40 15 0 11 11 15 40 15 22 0 40 5 40
10 0 6 33 10 80 10 l80 0 0 -40 0 -40 -40 0 c-22 0 -40 -4 -40 -10 0 -5 18
-10 40 -10 22 0 40 5 40 10 0 6 33 10 80 10 l80 0 0 40 0 40 120 0 120 0 0 40
0 40 40 0 c22 0 40 -4 40 -10 0 -5 18 -10 40 -10 22 0 40 5 40 10 0 6 33 10
80 10 l80 0 0 55 0 55 40 0 c36 0 40 3 40 25 l0 25 120 0 c73 0 120 -4 120
-10 0 -5 18 -10 40 -10 22 0 40 5 40 10 0 6 47 10 120 10 l120 0 0 40 c0 29
-4 40 -15 40 -11 0 -16 12 -17 43 -3 64 -2 80 7 100 5 12 3 17 -8 17 -8 0 -18
-10 -22 -22 l-8 -23 -4 23 -4 22 -1045 0 -1044 0 0 -400z m1840 255 c0 -11
-11 -15 -40 -15 -29 0 -40 4 -40 15 0 11 11 15 40 15 29 0 40 -4 40 -15z"/>
<path d="M2180 6108 c0 -6 -10 -23 -22 -36 -16 -17 -19 -26 -10 -29 6 -3 12
-11 12 -19 0 -10 12 -14 41 -14 40 0 41 1 35 28 -3 15 -3 21 0 15 3 -7 23 -13
45 -13 39 0 39 0 39 40 l0 40 -44 0 c-39 0 -45 -3 -50 -26 -8 -32 -29 -54 -50
-54 -22 0 -20 17 3 23 22 5 35 57 15 57 -8 0 -14 -5 -14 -12z"/>
<path d="M2400 6055 l0 -65 40 0 40 0 0 -55 0 -55 40 0 40 0 0 40 0 40 160 0
160 0 0 40 0 40 40 0 c29 0 40 -4 40 -15 0 -11 11 -15 40 -15 29 0 40 4 40 15
0 11 11 15 40 15 l40 0 0 -40 0 -40 80 0 80 0 0 -40 0 -40 80 0 80 0 0 -40 0
-40 120 0 c73 0 120 4 120 10 0 6 18 10 40 10 38 0 40 2 40 30 0 28 2 30 40
30 l40 0 0 40 0 40 40 0 40 0 0 -135 0 -135 80 0 c64 0 80 3 80 15 0 11 11 15
40 15 l40 0 0 40 0 40 80 0 80 0 0 40 0 40 40 0 40 0 0 -40 0 -40 80 0 80 0 0
-55 0 -55 80 0 c64 0 80 3 80 15 0 12 16 15 80 15 64 0 80 -3 80 -15 0 -11 11
-15 40 -15 36 0 40 -2 40 -25 0 -25 1 -25 80 -25 47 0 80 4 80 10 0 6 18 10
40 10 l40 0 0 -50 0 -50 120 0 120 0 0 -40 0 -40 40 0 40 0 0 -40 0 -40 40 0
c29 0 40 -4 40 -15 0 -11 11 -15 40 -15 36 0 40 -2 40 -25 0 -22 4 -25 40 -25
l40 0 0 -40 0 -40 120 0 c100 0 120 -2 120 -15 0 -11 11 -15 40 -15 29 0 40 4
40 15 0 8 9 15 20 15 20 0 20 7 20 440 l0 440 -1860 0 -1860 0 0 -65z m3520
-725 c0 -5 -18 -10 -40 -10 -22 0 -40 5 -40 10 0 6 18 10 40 10 22 0 40 -4 40
-10z"/>
<path d="M2201 5913 c1 -56 12 -95 21 -72 8 21 -3 119 -13 119 -5 0 -9 -21 -8
-47z"/>
<path d="M2240 5870 c0 -5 18 -10 40 -10 22 0 40 5 40 10 0 6 -18 10 -40 10
-22 0 -40 -4 -40 -10z"/>
<path d="M3680 5760 l0 -40 40 0 c29 0 40 -4 40 -15 0 -11 11 -15 40 -15 l40
0 0 55 0 55 -80 0 -80 0 0 -40z"/>
<path d="M2211 5764 c0 -11 3 -14 6 -6 3 7 2 16 -1 19 -3 4 -6 -2 -5 -13z"/>
<path d="M2978 5723 c12 -2 32 -2 45 0 12 2 2 4 -23 4 -25 0 -35 -2 -22 -4z"/>
<path d="M2090 5709 c0 -5 5 -7 10 -4 6 3 10 8 10 11 0 2 -4 4 -10 4 -5 0 -10
-5 -10 -11z"/>
<path d="M2408 5713 c7 -3 16 -2 19 1 4 3 -2 6 -13 5 -11 0 -14 -3 -6 -6z"/>
<path d="M3099 5706 c7 -8 20 -12 30 -9 9 2 23 -3 30 -11 8 -9 28 -16 45 -16
17 -1 42 -7 56 -15 25 -14 25 -14 3 -15 -13 0 -23 -4 -23 -10 0 -5 5 -10 10
-10 6 0 10 -6 9 -12 -4 -31 2 -47 21 -53 11 -4 17 -11 14 -17 -4 -7 -9 -7 -13
0 -3 5 -28 13 -55 17 -27 4 -57 16 -67 26 -11 11 -31 19 -46 19 -16 0 -41 7
-57 15 -27 14 -31 14 -50 -3 -22 -20 -66 -38 -106 -45 -14 -3 -2 -4 26 -4 28
0 59 -5 70 -11 17 -10 16 -11 -11 -12 -22 0 -26 -3 -16 -9 23 -15 -11 -41 -53
-41 -20 0 -36 -4 -36 -10 0 -5 -12 -10 -26 -10 -14 0 -23 -4 -19 -10 3 -6 -4
-10 -17 -10 -13 0 -28 -4 -33 -9 -17 -14 -98 -29 -135 -24 -24 3 -31 1 -21 -5
11 -8 11 -10 0 -15 -8 -3 6 -6 31 -6 88 -2 209 -14 205 -21 -2 -4 -66 -8 -141
-9 -139 -2 -159 -5 -149 -22 4 -5 -6 -9 -22 -9 -21 0 -25 -3 -13 -10 12 -7 12
-12 2 -22 -9 -9 -45 -13 -110 -14 -154 -2 -273 -13 -294 -28 -19 -13 -19 -14
-1 -18 10 -2 -16 -14 -57 -27 -78 -25 -100 -31 -87 -24 13 8 8 23 -8 23 -8 0
-15 5 -15 10 0 6 -10 10 -22 11 -22 0 -22 1 2 10 23 9 23 11 8 20 -24 13 -23
21 7 65 25 37 33 88 15 99 -5 3 -10 2 -10 -4 0 -5 -3 -18 -6 -28 -5 -15 -4
-15 5 -3 9 13 11 13 11 -2 0 -21 -10 -48 -19 -48 -4 0 -15 13 -24 30 -17 28
-17 30 3 50 12 12 19 24 16 28 -4 3 -20 -9 -36 -26 -16 -18 -35 -32 -42 -32
-12 0 -47 -37 -95 -99 -11 -14 -12 -14 -13 2 0 17 -20 25 -20 9 0 -25 -41 -53
-82 -57 -44 -4 -45 -4 -54 33 -5 20 -15 36 -22 35 -13 -3 -16 9 -5 21 4 4 7
19 8 34 0 17 6 28 17 30 21 4 68 -26 68 -44 0 -8 5 -14 10 -14 6 0 10 7 10 15
0 8 -4 15 -10 15 -5 0 -10 9 -10 19 0 20 -49 39 -70 26 -5 -3 -10 -2 -10 3 0
6 -9 8 -20 5 -23 -6 -26 -24 -8 -52 15 -24 -8 -59 -26 -41 -5 5 -20 10 -33 10
-16 0 -21 4 -17 15 4 10 0 15 -11 15 -9 0 -13 -5 -10 -11 4 -6 -2 -13 -13 -16
-13 -3 -19 -10 -15 -19 8 -21 -36 -66 -58 -59 -10 3 -20 1 -24 -5 -8 -12 -55
-14 -55 -1 0 5 -10 7 -22 3 -20 -5 -21 -4 -10 11 8 9 12 22 9 29 -3 8 -6 5 -6
-6 -1 -14 -6 -17 -23 -12 -13 4 -35 9 -50 12 -27 6 -39 24 -16 24 6 0 9 2 7 5
-3 2 -18 0 -35 -4 -16 -5 -22 -10 -13 -10 9 -1 19 -8 23 -16 7 -19 2 -19 -40
1 -19 9 -38 14 -41 10 -3 -3 1 -6 10 -6 9 0 17 -5 17 -11 0 -6 -13 -9 -28 -8
-17 2 -36 -3 -46 -14 -10 -9 -22 -17 -27 -17 -6 0 -7 -4 -4 -10 3 -5 1 -10 -4
-10 -22 0 -111 -62 -104 -73 4 -7 0 -8 -11 -4 -10 4 -15 3 -11 -4 11 -16 -15
-38 -54 -45 -20 -4 -49 -13 -66 -21 -30 -14 -30 -14 -2 -8 15 3 38 8 52 11 39
10 29 -8 -26 -46 -42 -28 -52 -32 -60 -20 -9 13 -10 13 -6 0 2 -8 -7 -25 -19
-39 -17 -19 -21 -32 -17 -58 4 -22 1 -38 -6 -43 -9 -5 -6 -9 8 -13 18 -4 21
-1 21 26 0 24 3 28 10 17 9 -13 10 -13 11 0 0 8 5 0 10 -18 11 -35 29 -35 29
1 0 12 9 28 20 35 11 7 20 21 20 33 0 11 5 17 10 14 6 -3 11 1 11 9 3 29 4 32
23 51 18 19 18 19 11 -5 -4 -14 -11 -27 -16 -30 -4 -3 -7 -12 -7 -20 5 -75 -4
-282 -11 -271 -5 7 -13 11 -19 7 -5 -3 -13 1 -16 10 -11 28 -25 5 -16 -26 5
-18 5 -32 -1 -36 -6 -3 -10 -18 -9 -32 3 -41 1 -45 -15 -32 -11 9 -18 10 -28
1 -8 -6 -17 -8 -20 -4 -4 3 -7 1 -7 -5 0 -15 17 -25 22 -11 5 16 39 -1 36 -20
-2 -11 3 -15 18 -14 12 1 30 -7 40 -19 19 -21 19 -21 -3 -9 -12 6 -28 8 -36 5
-9 -3 -29 2 -46 11 -27 14 -31 14 -31 0 0 -8 -4 -15 -8 -15 -5 0 -9 -13 -10
-30 0 -20 4 -30 14 -30 8 0 14 9 14 20 0 11 5 20 11 20 20 0 68 -40 82 -70 14
-26 13 -30 -4 -46 -13 -11 -16 -21 -10 -32 6 -11 4 -20 -7 -28 -15 -11 -15
-13 -2 -19 13 -4 15 -17 10 -64 -3 -32 -11 -65 -18 -74 -9 -10 -10 -17 -2 -22
5 -3 10 -15 10 -26 0 -11 7 -19 16 -19 8 0 12 -4 9 -10 -3 -6 4 -10 17 -10 21
-1 21 -2 -7 -17 -21 -11 -25 -18 -15 -20 40 -12 41 -12 31 -32 -8 -14 -6 -24
9 -41 24 -27 23 -25 7 -51 -10 -17 -9 -22 8 -34 11 -8 26 -19 33 -26 8 -6 35
-12 61 -14 26 -1 61 -10 79 -19 43 -22 115 -38 181 -40 50 -1 54 1 58 23 5 35
13 39 13 8 0 -15 5 -27 10 -27 6 0 10 11 10 25 0 14 4 25 9 25 12 0 24 -37 17
-49 -3 -5 1 -14 9 -21 8 -7 15 -19 15 -27 0 -11 7 -13 29 -8 19 4 41 0 60 -9
34 -18 66 -22 41 -6 -12 8 -9 10 14 10 23 0 27 3 23 20 -3 11 -1 18 4 14 5 -3
9 5 9 17 0 18 3 20 12 11 10 -10 10 -17 0 -32 -17 -28 -16 -30 20 -30 23 0 29
-3 21 -11 -13 -13 -121 -17 -146 -5 -13 6 -16 5 -11 -8 3 -9 10 -14 14 -11 5
3 12 -1 17 -8 11 -20 65 -36 99 -30 21 3 25 2 15 -5 -11 -8 -8 -11 15 -15 17
-2 4 -5 -31 -7 -50 -2 -55 -4 -30 -10 17 -4 62 -9 100 -10 66 -3 67 -3 25 -10
l-45 -6 35 -5 35 -6 -37 -1 c-48 -2 -57 -18 -16 -28 18 -4 27 -9 21 -11 -24
-9 -13 -23 12 -17 15 4 25 2 25 -5 0 -6 8 -12 18 -12 21 -2 -104 -20 -135 -19
-27 0 -32 -20 -5 -21 11 0 7 -4 -10 -11 -30 -10 -36 -23 -15 -31 7 -3 6 -6 -5
-6 -9 -1 -20 4 -23 9 -3 6 -12 10 -18 10 -7 -1 -1 -10 12 -20 18 -15 19 -20 7
-20 -21 0 -20 -10 2 -26 15 -12 14 -12 -8 -8 l-25 6 25 -21 25 -20 -25 -10
c-23 -9 -21 -10 20 -12 38 -2 40 -3 13 -6 -31 -4 -47 -23 -20 -23 7 -1 5 -6
-6 -14 -18 -14 -18 -14 1 -20 11 -4 23 -18 26 -31 4 -16 20 -31 47 -43 23 -11
37 -22 32 -25 -5 -3 -15 -2 -23 4 -21 12 -33 11 -24 -2 5 -8 -1 -10 -20 -7
-33 7 -34 -9 -1 -18 14 -3 25 -10 25 -14 0 -5 8 -11 18 -13 16 -4 16 -5 -1 -6
-10 0 -31 6 -47 14 -17 9 -30 12 -30 7 0 -13 70 -42 105 -44 36 -3 49 -18 29
-33 -30 -21 -6 -44 49 -47 l52 -3 -84 -18 c-47 -9 -87 -14 -90 -9 -6 7 -57 32
-66 32 -3 0 -5 -4 -5 -10 0 -5 9 -10 20 -10 11 0 20 -3 20 -8 0 -11 92 -42
124 -42 16 0 25 -4 21 -10 -4 -6 5 -10 21 -10 35 0 27 -9 -11 -12 -17 -2 -30
-9 -33 -20 -2 -9 -16 -22 -31 -28 -23 -9 -23 -10 -2 -6 29 6 62 -21 41 -34
-10 -6 -4 -11 21 -18 l34 -10 -45 -2 -45 -2 33 -9 c17 -5 32 -12 32 -15 0 -3
-10 -2 -22 2 -36 10 -16 -4 28 -21 l39 -15 -42 4 c-26 2 -43 0 -43 -6 0 -11
-36 -6 -75 8 -17 7 -18 6 -7 -8 7 -9 29 -19 50 -23 30 -6 33 -9 18 -14 -31
-12 -1 -24 37 -16 46 10 29 -3 -19 -14 -36 -8 -37 -9 -9 -10 21 -1 26 -4 16
-10 -10 -6 -4 -12 23 -21 55 -18 53 -30 -5 -23 -38 5 -50 3 -45 -5 4 -7 19
-10 34 -7 15 3 21 2 14 -1 -6 -3 -10 -9 -7 -13 2 -5 -7 -6 -20 -3 -15 2 -25 0
-25 -7 0 -6 12 -11 28 -12 24 0 25 -1 7 -9 -12 -4 -27 -15 -34 -24 -12 -14
-11 -19 5 -31 10 -8 29 -15 42 -15 12 0 22 -4 22 -10 0 -5 15 -10 34 -10 18 0
39 -7 46 -15 9 -10 9 -15 1 -15 -6 0 -11 3 -11 8 0 4 -28 7 -63 7 -44 0 -61
-4 -60 -12 2 -9 -14 -14 -50 -15 -43 -1 -45 -2 -14 -5 20 -2 37 -8 37 -14 0
-5 15 -9 34 -9 19 0 37 -4 41 -9 3 -6 17 -6 33 -2 30 9 62 -6 62 -29 0 -9 6
-8 19 4 13 12 27 15 46 10 22 -5 32 -2 47 17 11 15 16 18 12 7 -12 -35 6 -17
30 30 33 63 33 45 0 -25 -25 -52 -26 -59 -15 -109 14 -59 38 -90 26 -33 -3 19
-9 43 -12 53 -4 14 -1 18 10 13 14 -5 15 -2 6 20 -5 14 -8 28 -5 30 2 3 10
-11 17 -31 14 -38 24 -38 41 2 l11 27 7 -35 c3 -19 2 -46 -2 -59 -10 -28 -1
-42 12 -21 8 13 10 13 10 -1 0 -9 7 -19 15 -23 10 -4 15 1 15 15 0 31 39 99
56 99 11 0 14 6 10 16 -3 8 -2 12 4 9 6 -3 10 -13 10 -21 0 -8 5 -14 10 -14 6
0 10 7 10 15 0 9 11 20 24 25 13 5 27 18 31 29 3 11 9 20 13 20 22 -4 32 4 33
24 0 12 5 31 10 42 7 17 8 15 6 -10 -2 -16 -2 -24 0 -17 3 7 8 10 12 7 5 -2 6
8 4 23 -4 23 -3 24 7 10 12 -19 40 -25 40 -9 0 6 12 22 26 38 21 22 27 25 34
13 6 -8 10 -13 10 -10 15 130 14 220 0 272 -19 63 19 43 40 -22 7 -22 20 -46
28 -53 13 -10 14 -8 8 10 -4 12 -3 24 2 27 5 3 -2 29 -16 58 -32 65 -43 172
-19 181 9 3 18 -1 21 -10 5 -12 9 -13 21 -3 13 10 15 8 15 -13 0 -14 6 -32 14
-39 7 -8 26 -48 40 -88 28 -77 65 -153 79 -158 4 -2 7 -9 7 -16 0 -7 12 -25
28 -42 47 -49 102 -122 102 -133 0 -6 4 -11 9 -11 13 0 20 -47 8 -59 -7 -7 -5
-16 6 -29 9 -10 14 -21 11 -25 -4 -3 2 -14 12 -24 16 -17 16 -18 1 -21 -14 -3
-15 -7 -6 -24 6 -11 13 -52 15 -91 4 -70 4 -71 -10 -37 l-14 35 -3 -35 c-1
-19 -3 -66 -4 -105 -3 -87 -14 -158 -25 -165 -5 -3 -5 -12 0 -19 9 -16 2 -43
-10 -36 -5 3 -6 -4 -3 -15 3 -11 -4 -30 -16 -46 -12 -15 -21 -34 -21 -43 0 -9
-6 -23 -13 -31 -23 -29 -88 -80 -96 -76 -4 3 -22 -17 -39 -45 -18 -27 -37 -49
-42 -49 -6 0 -10 -11 -10 -24 0 -15 -7 -26 -17 -29 -17 -4 -17 -5 0 -6 9 0 17
-9 17 -19 0 -10 4 -22 9 -27 6 -6 3 -16 -7 -25 -14 -13 -15 -12 -9 3 4 11 2
17 -7 17 -8 0 -13 -12 -12 -32 1 -30 5 -33 41 -41 22 -5 64 -11 93 -14 28 -3
52 -8 52 -13 0 -11 35 -19 48 -11 6 4 15 18 21 31 8 22 10 22 11 5 0 -18 2
-18 20 5 20 24 21 25 35 6 10 -13 11 -22 5 -26 -7 -4 3 -22 23 -43 35 -39 47
-39 47 -2 0 30 -22 49 -38 33 -9 -9 -12 -5 -12 20 0 25 4 32 20 32 13 0 20 -7
20 -20 0 -11 5 -20 10 -20 6 0 10 -6 10 -14 0 -8 5 -18 10 -21 6 -4 10 10 10
34 0 34 -3 41 -20 41 -15 0 -20 7 -20 24 0 29 17 43 33 27 19 -19 27 -12 27
25 0 28 7 44 30 66 25 23 30 36 30 73 0 33 -4 45 -15 45 -8 0 -15 5 -15 10 0
6 6 10 14 10 8 0 17 6 19 13 4 10 6 10 6 0 1 -7 12 -13 26 -13 19 0 23 4 18
17 -4 10 -9 20 -12 23 -17 15 -27 48 -20 70 19 65 4 274 -27 380 -8 25 -7 25
12 6 10 -10 24 -33 31 -50 9 -25 12 -27 12 -9 1 12 7 28 15 35 9 10 11 20 5
31 -14 24 7 31 24 7 8 -12 13 -29 10 -39 -3 -12 2 -20 16 -24 13 -3 21 -13 21
-26 0 -12 5 -21 10 -21 6 0 10 -16 10 -35 0 -19 4 -35 10 -35 5 0 12 -16 16
-35 3 -19 14 -40 23 -45 9 -6 11 -10 4 -10 -7 0 -13 -9 -13 -20 0 -11 -9 -29
-20 -40 -16 -16 -17 -20 -5 -20 9 0 15 -9 15 -22 0 -38 13 -50 36 -33 27 20
37 18 24 -5 -6 -11 -20 -20 -30 -20 -17 0 -20 -7 -20 -40 0 -33 -3 -40 -20
-40 -14 0 -20 7 -20 23 -1 21 -1 21 -12 3 -8 -15 -8 -21 0 -24 7 -2 12 -22 12
-45 0 -35 -6 -46 -42 -79 -23 -21 -45 -38 -49 -38 -4 0 -10 -36 -14 -80 -7
-76 -8 -80 -31 -80 -19 0 -24 -5 -24 -24 0 -13 -3 -31 -6 -40 -5 -12 1 -16 24
-16 l30 0 0 -105 c1 -103 -8 -132 -23 -77 l-8 27 -7 -25 c-5 -14 -8 -19 -9
-12 -1 7 -16 12 -41 12 -22 0 -40 3 -40 8 0 4 -23 7 -50 7 -28 0 -50 -3 -50
-7 0 -4 -18 -7 -40 -6 -50 2 -58 -6 -35 -32 18 -20 18 -20 -22 -20 -27 0 -43
-5 -46 -14 -4 -10 -1 -13 9 -9 8 3 14 -1 14 -11 0 -9 6 -16 13 -16 23 0 27 12
9 26 -16 13 -16 13 1 14 9 0 18 -6 18 -12 1 -7 2 -17 4 -23 1 -5 3 -14 4 -20
1 -5 6 -3 11 5 9 13 13 12 28 -5 21 -24 94 -65 116 -65 9 0 21 -9 28 -20 7
-11 20 -20 28 -20 24 0 40 -21 40 -52 l0 -27 36 21 c33 19 37 20 52 4 15 -14
15 -18 2 -26 -12 -8 -12 -10 3 -16 10 -3 21 -4 24 0 8 7 32 -24 33 -42 0 -7
13 -30 29 -50 27 -34 28 -41 22 -89 -5 -32 -3 -57 3 -63 13 -13 4 -13 -28 -1
-18 8 -23 15 -20 33 2 13 1 16 -2 8 -4 -8 -11 -17 -15 -20 -13 -9 114 -134
275 -270 16 -14 40 -37 55 -51 14 -14 57 -52 96 -85 38 -32 83 -71 100 -86 38
-35 95 -39 95 -8 0 13 7 20 20 20 11 0 20 7 20 15 0 9 6 12 15 9 8 -4 15 -10
15 -15 0 -5 -7 -9 -15 -9 -8 0 -15 -9 -15 -20 0 -19 7 -20 116 -20 l117 0 -27
33 c-14 17 -42 55 -60 84 -44 66 -65 90 -157 188 -41 44 -100 107 -130 139
-30 33 -112 120 -184 194 -117 120 -225 256 -225 282 0 6 -5 10 -11 10 -5 0
-7 -4 -4 -10 3 -5 0 -7 -8 -4 -15 5 -33 71 -23 82 3 3 7 -6 7 -19 1 -18 2 -19
6 -6 3 10 -3 27 -13 38 -16 17 -16 22 -4 30 13 8 13 11 -1 19 -9 5 -20 26 -23
45 -4 20 -11 33 -17 30 -5 -4 -10 -1 -10 4 -3 26 -4 30 -11 36 -3 3 -9 -33
-13 -82 -3 -48 -8 -99 -11 -112 l-5 -24 -15 22 c-12 17 -14 39 -10 99 8 132
10 140 43 174 17 18 34 49 38 68 5 19 10 29 12 22 8 -22 23 -2 24 31 0 32 0
32 11 7 6 -14 12 -20 14 -15 4 11 30 133 46 210 5 28 28 88 50 135 22 47 50
112 62 145 11 33 48 107 80 164 54 95 57 105 42 117 -10 7 -13 15 -7 18 5 3
12 0 14 -6 7 -15 34 16 63 70 10 21 23 42 27 47 4 6 25 36 46 68 46 71 107
136 135 143 12 3 59 -5 106 -16 123 -30 262 -36 390 -16 224 36 283 64 304
149 5 22 3 27 -12 27 -10 0 -24 -6 -31 -12 -11 -10 -14 -10 -18 -1 -3 9 -10
10 -24 3 -15 -9 -20 -6 -25 14 -7 29 41 136 62 136 8 0 14 5 14 12 0 6 9 1 20
-12 11 -13 23 -20 27 -16 4 4 3 10 -3 14 -20 13 -35 79 -28 118 4 21 18 47 32
59 32 28 33 95 2 138 l-22 29 21 48 c28 66 27 123 -4 175 -17 31 -33 44 -55
48 -25 6 -30 11 -30 36 0 22 4 29 14 25 9 -3 20 4 27 18 7 13 41 51 76 85 64
64 75 86 47 97 -19 7 -16 92 4 88 6 -1 12 3 12 9 0 13 -67 79 -80 79 -5 0 -47
32 -92 71 -59 51 -83 78 -82 93 4 52 9 76 16 76 4 0 8 7 8 15 0 8 -7 15 -16
15 -13 0 -14 3 -5 14 12 14 5 43 -15 63 -9 10 -13 10 -16 1 -2 -6 -4 33 -3 88
1 54 -1 89 -3 77 -2 -13 -7 -23 -11 -23 -8 0 -17 67 -27 185 -2 28 -6 61 -8
75 -10 54 -15 104 -9 85 3 -11 12 -29 19 -40 8 -11 14 -29 14 -42 0 -12 5 -25
10 -28 15 -9 12 30 -6 76 -14 35 -15 42 -3 50 9 6 10 12 4 17 -29 21 -71 157
-60 191 6 19 -24 111 -44 135 -7 8 -10 20 -6 26 3 5 1 10 -4 10 -6 0 -11 8
-11 19 0 18 -30 96 -51 135 -6 10 -20 34 -30 53 -11 19 -17 39 -13 44 3 5 -6
19 -21 30 -18 15 -24 27 -20 40 5 15 3 17 -10 12 -10 -3 -20 -1 -24 4 -3 6
-17 14 -30 18 -17 5 -21 4 -16 -5 10 -17 -35 10 -59 35 -13 14 -20 16 -23 8
-3 -7 -16 -13 -29 -13 -14 0 -34 -5 -45 -10 -24 -13 -35 -7 -98 53 -52 50 -71
58 -72 30 0 -11 -5 -7 -11 11 -13 35 -28 18 -28 -31 0 -18 -4 -33 -9 -33 -5 0
-8 8 -7 18 0 9 -5 16 -12 14 -8 -1 -11 2 -7 8 7 12 -20 25 -34 16 -12 -8 19
-45 32 -39 4 2 7 -2 7 -10 0 -20 -84 -4 -108 20 -16 16 -16 16 1 10 13 -5 17
-3 15 5 -3 7 -19 17 -36 23 -44 13 -43 37 1 28 17 -3 34 -10 35 -15 6 -14 32
-9 32 7 0 20 -32 35 -74 35 -29 0 -36 4 -36 20 0 18 -7 20 -80 20 -69 0 -80 2
-80 18 -1 27 -62 75 -101 78 -64 6 -77 9 -85 17 -4 4 -25 7 -47 7 -33 0 -37
-2 -28 -14z m371 -130 c0 -8 11 -17 25 -20 14 -4 25 -11 25 -16 0 -12 -176 -4
-198 10 -11 6 -12 9 -4 10 7 0 10 5 7 10 -3 6 3 10 15 10 12 0 18 -4 15 -10
-3 -5 4 -11 17 -12 73 -5 75 -4 70 14 -3 12 1 18 12 18 9 0 16 -6 16 -14z
m-392 -23 c-10 -2 -28 -2 -40 0 -13 2 -5 4 17 4 22 1 32 -1 23 -4z m62 -18 c0
-1 -14 -2 -31 -3 -18 0 -37 -6 -42 -11 -6 -6 -24 -11 -41 -11 -41 0 -26 11 36
25 45 10 78 10 78 0z m117 -1 c-3 -3 -12 -4 -19 -1 -8 3 -5 6 6 6 11 1 17 -2
13 -5z m162 -33 l21 -21 -30 0 c-16 0 -30 5 -30 10 0 6 -11 10 -24 10 -33 0
-57 10 -50 21 9 16 92 1 113 -20z m71 9 c0 -5 -9 -10 -19 -10 -11 0 -23 5 -26
10 -4 6 5 10 19 10 14 0 26 -4 26 -10z m40 -40 c8 -16 8 -18 -4 -14 -17 6 -30
34 -16 34 5 0 14 -9 20 -20z m280 -40 c12 -8 11 -10 -7 -10 -13 0 -23 5 -23
10 0 13 11 13 30 0z m-115 -20 c3 -5 1 -10 -4 -10 -6 0 -11 5 -11 10 0 6 2 10
4 10 3 0 8 -4 11 -10z m80 -30 c3 -5 1 -10 -4 -10 -6 0 -11 5 -11 10 0 6 2 10
4 10 3 0 8 -4 11 -10z m55 -41 c0 -6 -4 -7 -10 -4 -5 3 -10 11 -10 16 0 6 5 7
10 4 6 -3 10 -11 10 -16z m220 -20 c0 -14 -17 -10 -23 5 -4 10 -1 13 9 9 7 -3
14 -9 14 -14z m-1360 -59 c0 -5 -9 -10 -20 -10 -11 0 -20 5 -20 10 0 6 9 10
20 10 11 0 20 -4 20 -10z m-135 -15 c29 -13 30 -13 5 -14 -22 -1 -21 -4 15
-21 31 -16 34 -19 13 -15 -22 4 -26 2 -21 -11 5 -14 3 -15 -15 -5 -27 14 -45
14 -36 0 4 -8 -4 -9 -27 -5 -25 4 -29 4 -14 -3 11 -5 16 -10 11 -10 -6 -1 -1
-8 10 -17 10 -8 13 -12 5 -8 -7 3 -18 0 -23 -7 -8 -11 -9 -10 -4 4 3 11 0 17
-9 17 -8 0 -15 -5 -15 -11 0 -6 -10 -10 -22 -9 -50 4 -58 0 -58 -26 0 -22 -2
-25 -15 -14 -8 7 -15 8 -15 2 0 -5 9 -16 21 -23 20 -14 19 -14 -8 -16 -15 -1
-33 3 -39 8 -6 5 -18 7 -26 4 -20 -8 -19 -35 1 -36 9 0 3 -7 -14 -14 -16 -8
-24 -14 -16 -15 11 0 11 -3 0 -16 -10 -13 -10 -17 0 -24 10 -6 7 -12 -13 -25
-31 -21 -33 -32 -6 -37 18 -3 17 -4 -6 -15 -21 -10 -28 -9 -45 8 -10 10 -26
19 -35 19 -8 0 -12 4 -9 10 3 6 -1 7 -10 4 -20 -8 -68 24 -61 41 6 16 -24 45
-48 45 -9 0 -26 5 -36 10 -13 7 -21 7 -25 0 -3 -5 -17 -10 -31 -10 -15 0 -24
-6 -24 -15 0 -8 8 -15 18 -15 9 0 32 -9 50 -20 18 -11 39 -20 47 -20 9 0 12
-6 9 -15 -4 -11 -16 -13 -41 -9 -20 3 -45 7 -57 8 -12 1 -27 5 -33 9 -16 10
-93 5 -93 -6 0 -5 10 -7 22 -4 11 3 37 -1 57 -10 20 -9 45 -18 56 -20 10 -2
22 -7 25 -12 3 -4 21 -7 40 -7 36 2 79 -28 84 -57 1 -8 24 -34 51 -57 62 -53
67 -58 33 -37 -22 14 -28 14 -38 2 -8 -10 -7 -17 8 -32 26 -25 46 -63 32 -63
-5 0 -10 7 -10 17 0 9 -3 13 -6 10 -4 -4 -15 3 -25 14 -10 12 -23 18 -28 14
-6 -3 -9 0 -6 7 5 13 -3 26 -46 78 -15 18 -13 12 7 -25 l28 -50 -27 24 c-15
14 -27 22 -27 19 0 -4 -3 -15 -6 -25 -4 -14 -4 -15 4 -4 8 11 12 9 22 -9 8
-15 8 -20 1 -16 -17 11 -13 -15 6 -36 28 -31 9 -30 -35 2 -28 20 -39 24 -35
13 4 -10 2 -14 -5 -9 -6 3 -17 -3 -25 -15 l-15 -20 -16 23 c-23 33 -20 44 7
22 l22 -19 -19 23 c-11 12 -21 20 -23 18 -9 -8 -53 38 -53 55 0 9 -8 23 -17
30 -15 11 -16 11 -5 -1 6 -8 12 -18 12 -23 0 -15 -21 5 -30 29 -7 16 -17 24
-34 24 -14 0 -28 5 -31 10 -11 17 -35 12 -28 -7 6 -14 0 -15 -48 -11 -63 7
-151 -1 -144 -13 3 -4 1 -10 -5 -14 -16 -10 -12 -21 13 -33 20 -9 17 -11 -21
-11 -26 -1 -41 3 -37 9 10 16 -14 50 -35 50 -23 0 -26 13 -6 29 7 6 27 8 45 5
18 -4 49 -2 69 4 20 6 50 14 65 17 15 3 25 10 22 15 -3 6 2 10 12 11 10 1 -2
7 -27 13 l-45 13 70 -1 c42 0 60 -3 45 -7 l-25 -6 28 -12 c16 -6 37 -11 48
-11 11 0 18 -4 15 -9 -3 -4 5 -6 18 -4 18 4 28 -1 37 -18 12 -23 12 -23 19 -4
4 11 3 25 -2 32 -6 8 6 7 39 -3 45 -13 73 -35 73 -57 0 -5 7 -4 15 3 13 11 10
17 -23 42 -41 33 -53 45 -34 34 17 -10 15 9 -3 24 -17 14 -87 17 -145 6 -26
-5 -30 -4 -15 3 18 9 17 10 -10 11 -28 1 -29 2 -7 10 12 5 22 16 22 25 0 8 6
15 13 15 6 1 1 7 -12 14 -22 12 -16 13 50 8 66 -4 73 -3 61 10 -10 13 -10 17
4 22 14 5 14 9 3 23 -13 14 -7 15 68 11 47 -3 89 -10 98 -18 15 -12 16 -10 9
16 -3 16 -13 34 -20 40 -21 17 -17 25 11 18 15 -4 25 -2 25 5 0 6 -17 12 -37
12 -31 2 -33 3 -10 6 15 2 27 9 27 15 0 6 -10 8 -23 4 -17 -4 -24 -1 -24 10 0
8 6 13 13 10 8 -3 16 -1 20 5 3 5 15 7 26 3 14 -4 18 -2 14 5 -4 7 0 11 11 11
11 0 23 4 28 9 6 5 44 16 85 25 41 8 91 19 110 25 54 14 210 12 245 -4z
m-1155 -29 c-5 -13 -6 -27 -3 -30 4 -3 2 -6 -3 -6 -5 0 -11 -11 -12 -25 -1
-14 -11 -43 -22 -65 -25 -49 -27 -79 -5 -60 13 11 15 7 15 -24 0 -22 4 -35 10
-31 16 10 -1 -28 -20 -45 -21 -18 -38 -76 -19 -64 9 5 10 2 6 -10 -4 -10 -7
-25 -8 -34 0 -13 -2 -13 -8 3 -7 17 -9 16 -15 -12 -4 -18 -14 -37 -22 -41 -8
-5 -19 -21 -23 -38 -7 -21 -10 0 -10 79 -1 70 3 106 9 102 6 -3 10 -4 10 -1 0
2 3 12 7 22 4 12 3 15 -5 10 -19 -11 -14 16 19 115 30 91 38 105 72 137 9 9
17 22 17 29 0 7 4 13 10 13 6 0 6 -9 0 -24z m1319 18 c36 -7 42 -24 9 -24 -27
1 -82 29 -57 30 9 0 31 -3 48 -6z m-814 -134 c3 -5 1 -10 -4 -10 -6 0 -11 5
-11 10 0 6 2 10 4 10 3 0 8 -4 11 -10z m-991 -97 c-4 -15 -9 -44 -10 -63 -1
-19 -5 -55 -9 -79 -6 -32 -5 -42 3 -37 7 4 12 15 12 25 0 20 59 116 66 108 3
-3 0 -15 -6 -27 -7 -12 -12 -63 -13 -113 0 -66 -5 -100 -18 -126 -10 -20 -18
-29 -19 -20 0 9 -6 22 -14 28 -12 10 -15 4 -21 -31 -7 -40 -8 -41 -17 -18 -5
14 -10 86 -11 161 -2 111 1 140 14 155 8 11 21 32 27 48 16 35 27 27 16 -11z
m3122 -68 c-3 -8 0 -12 7 -10 16 6 35 -6 39 -25 2 -8 12 -19 23 -25 11 -6 25
-21 31 -34 7 -13 16 -26 21 -30 14 -10 40 -64 54 -113 7 -27 17 -48 21 -48 4
0 12 -18 19 -39 6 -22 31 -58 55 -82 28 -29 43 -53 43 -69 0 -23 -1 -23 -9 -5
-7 15 -9 10 -9 -23 -1 -26 -8 -53 -19 -67 -15 -19 -18 -40 -16 -133 l2 -111
-24 15 c-34 23 -67 84 -65 121 1 17 -3 34 -8 37 -5 3 -7 15 -4 26 8 28 -27 64
-84 85 -32 13 -41 20 -32 26 12 7 11 9 -1 9 -8 0 -24 18 -34 40 -11 22 -25 40
-33 40 -17 0 -17 17 0 23 6 2 8 8 4 13 -4 5 -11 3 -15 -3 -10 -16 -82 5 -82
24 0 7 -6 13 -14 13 -14 0 -66 78 -66 99 0 6 -9 20 -20 31 -14 14 -20 33 -20
68 0 27 3 52 8 56 4 4 7 12 7 17 0 11 35 32 70 44 l20 7 -20 8 c-35 14 9 24
46 11 40 -14 48 -14 29 0 -11 8 -7 9 18 6 28 -3 33 -1 29 14 -4 16 -2 17 15 8
11 -6 17 -17 14 -24z m-2884 -22 c-26 -34 -79 -153 -67 -153 2 0 -1 -14 -7
-30 -7 -22 -7 -34 1 -44 8 -10 8 -16 -4 -26 -8 -7 -15 -21 -15 -31 0 -11 -7
-19 -15 -19 -8 0 -15 5 -15 11 0 5 -4 8 -8 5 -13 -8 3 73 26 134 21 53 64 121
105 168 32 35 32 26 -1 -15z m211 -13 c-3 -11 -7 -20 -9 -20 -2 0 -4 9 -4 20
0 11 4 20 9 20 5 0 7 -9 4 -20z m53 -127 c-1 -31 -5 -38 -28 -44 -22 -6 -26
-4 -21 10 6 16 42 71 47 71 1 0 2 -17 2 -37z m1863 -4 c-5 -22 -7 -44 -4 -49
3 -5 8 -58 10 -117 3 -107 1 -107 -25 -5 -11 47 -7 143 9 185 15 40 20 33 10
-14z m-1514 11 c3 -5 1 -10 -4 -10 -6 0 -11 5 -11 10 0 6 2 10 4 10 3 0 8 -4
11 -10z m-537 -22 c-1 -13 -5 -27 -9 -33 -10 -14 -15 -58 -7 -70 3 -5 1 -35
-4 -65 -5 -30 -9 -65 -9 -78 0 -13 -3 -21 -8 -18 -12 8 -21 -18 -14 -42 3 -11
0 -29 -6 -39 -9 -15 -10 -12 -5 13 4 20 1 34 -7 39 -9 6 -11 3 -6 -8 4 -11 1
-17 -7 -17 -22 0 -19 198 4 230 9 14 23 41 30 62 9 23 18 34 27 31 7 -3 13 0
13 6 0 6 2 11 4 11 3 0 4 -10 4 -22z m247 -78 c17 -11 24 -20 16 -20 -8 0 -11
-6 -7 -15 4 -12 -1 -15 -24 -13 -21 2 -35 -4 -46 -20 -22 -31 -46 -29 -38 3 4
17 2 25 -7 25 -10 0 -10 3 -3 8 6 4 14 17 18 30 9 28 50 29 91 2z m2902 -2
c-3 -8 -6 -5 -6 6 -1 11 2 17 5 13 3 -3 4 -12 1 -19z m-2566 -16 c19 -11 49
-23 66 -27 18 -4 36 -11 39 -17 5 -8 -1 -9 -17 -4 -13 3 -37 9 -54 12 l-30 5
25 -15 25 -15 -25 -2 c-14 -1 -33 -3 -42 -4 -18 -1 -38 -15 -22 -15 6 0 19 -7
30 -16 10 -8 13 -12 5 -8 -22 11 -79 16 -61 5 8 -6 19 -7 25 -4 5 3 4 0 -2 -7
-11 -12 -19 -11 -49 3 -37 18 -54 15 -54 -9 0 -8 -7 -14 -15 -14 -14 0 -20
-12 -16 -33 1 -5 -8 -11 -19 -14 -11 -3 -20 -9 -20 -14 0 -5 -24 -8 -52 -8
-29 1 -45 3 -35 6 9 2 17 11 17 18 0 8 -8 18 -17 24 -17 9 -17 10 0 16 24 10
21 22 -8 29 -14 4 -25 11 -25 17 0 6 5 7 10 4 12 -7 54 24 58 43 1 6 -6 12
-16 12 -10 0 -19 7 -19 14 0 12 5 13 20 4 11 -5 17 -6 14 -1 -3 5 10 9 29 9
20 0 29 -3 21 -8 -6 -4 -9 -8 -5 -8 3 0 14 -3 24 -7 13 -5 15 -3 9 7 -6 10 -4
12 11 6 10 -5 28 -11 39 -14 18 -5 19 -4 5 13 -9 11 -10 16 -2 11 6 -4 12 -2
12 3 0 6 -7 11 -15 11 -8 0 -15 3 -15 8 0 15 117 3 151 -16z m2536 -54 c-3 -8
-6 -5 -6 6 -1 11 2 17 5 13 3 -3 4 -12 1 -19z m-1140 -60 c-3 -7 -5 -2 -5 12
0 14 2 19 5 13 2 -7 2 -19 0 -25z m1160 -30 c-3 -8 -6 -5 -6 6 -1 11 2 17 5
13 3 -3 4 -12 1 -19z m-1210 -20 c-3 -8 -6 -5 -6 6 -1 11 2 17 5 13 3 -3 4
-12 1 -19z m-2367 -3 c19 -23 8 -26 -20 -5 -19 15 -21 20 -9 20 9 0 22 -7 29
-15z m496 -35 c4 -35 -9 -39 -30 -8 -20 28 -20 39 -1 32 8 -4 15 -1 15 7 0 23
13 0 16 -31z m1881 -22 c-3 -7 -5 -2 -5 12 0 14 2 19 5 13 2 -7 2 -19 0 -25z
m-1631 -6 c-3 -5 12 -9 32 -10 20 -1 73 -8 117 -16 72 -12 77 -14 48 -21 -18
-4 -33 -12 -33 -17 0 -6 11 -7 25 -4 19 5 23 3 19 -9 -4 -8 -12 -15 -19 -15
-18 0 -26 -25 -12 -39 6 -6 20 -11 32 -12 17 -1 16 -2 -5 -8 -25 -7 -24 -8 8
-15 18 -4 30 -11 27 -16 -3 -5 -20 -4 -38 1 -40 11 -67 12 -67 0 0 -5 11 -12
25 -15 14 -4 25 -11 25 -16 0 -13 -6 -13 -43 6 l-32 15 27 -24 c29 -27 27 -42
-4 -26 -31 17 -32 3 -1 -21 26 -20 26 -22 5 -15 -21 6 -22 5 -11 -13 7 -12 16
-19 19 -17 4 2 7 -2 7 -10 0 -20 -22 -19 -54 2 -14 10 -33 18 -41 20 -9 1 -19
8 -23 15 -4 7 -15 22 -24 33 -14 17 -14 15 1 -15 23 -47 51 -86 99 -139 43
-48 26 -39 -39 21 -40 37 -64 50 -50 26 5 -7 3 -8 -5 -4 -7 5 -10 15 -7 23 3
8 2 11 -3 8 -5 -3 -12 -1 -16 5 -4 6 -12 7 -18 3 -7 -4 -5 2 3 12 8 10 10 16
3 12 -17 -10 -48 34 -63 90 -8 26 -18 51 -23 54 -5 4 -7 15 -5 25 2 12 14 -4
37 -47 18 -35 42 -75 53 -89 l20 -25 -7 25 c-18 64 -29 89 -36 79 -4 -8 -11
-4 -18 10 -8 14 -8 21 -1 21 6 0 -1 20 -14 45 -19 33 -21 43 -9 38 13 -5 14
-3 3 18 -7 13 -9 21 -5 17 4 -4 16 -3 26 3 14 7 17 6 13 -4 -3 -8 2 -19 9 -26
12 -10 14 -6 13 21 -3 40 1 48 20 48 8 0 13 -4 10 -8z m-167 -85 c0 -21 -1
-21 -9 -2 -12 28 -12 37 0 30 6 -3 10 -16 9 -28z m2071 16 c1 -25 24 -53 43
-53 9 0 20 -8 26 -17 7 -13 21 -17 50 -16 35 2 41 -1 41 -18 0 -10 -4 -27 -9
-37 -24 -47 -51 -110 -51 -119 0 -5 -13 -22 -30 -38 -37 -35 -74 -129 -66
-170 17 -101 21 -110 46 -113 14 -2 31 -11 38 -20 7 -10 28 -16 52 -17 23 -1
51 -10 67 -22 23 -17 29 -29 31 -73 3 -47 -1 -58 -37 -113 -23 -33 -41 -66
-41 -74 0 -8 -5 -11 -11 -8 -6 4 -8 13 -6 19 4 9 -3 11 -20 8 -22 -4 -24 -8
-18 -43 4 -26 3 -39 -4 -39 -6 0 -12 -12 -12 -27 -1 -17 -3 -21 -6 -10 -3 10
-14 17 -29 17 -25 0 -27 -5 -24 -56 1 -17 -6 -38 -14 -47 -9 -9 -16 -20 -16
-26 0 -6 -4 -11 -10 -11 -5 0 -10 9 -10 19 0 10 -7 21 -15 25 -8 3 -15 12 -15
21 0 8 -7 15 -15 15 -8 0 -15 9 -15 19 0 11 -4 22 -9 25 -5 3 -12 17 -15 32
-4 14 -18 38 -31 52 -14 15 -25 35 -25 44 0 10 -7 18 -15 18 -8 0 -34 12 -58
26 -32 20 -48 38 -59 68 -18 51 -10 84 32 133 54 61 106 181 119 275 18 122
43 238 51 238 8 0 22 43 24 70 1 8 12 20 26 27 14 7 18 13 10 13 -13 0 -13 1
0 10 22 14 30 12 30 -7z m-2095 -83 l8 35 12 -40 c11 -36 12 -38 17 -15 5 27
4 28 33 -60 10 -30 22 -59 28 -65 7 -7 8 -3 3 10 -4 11 -10 34 -12 50 l-5 30
19 -35 c11 -19 17 -40 15 -48 -3 -7 0 -12 8 -10 7 2 13 -3 14 -11 0 -8 7 -17
16 -20 9 -3 29 -22 45 -41 l28 -35 -30 28 c-17 15 -37 27 -45 27 -8 0 -21 11
-29 25 -9 15 -20 21 -27 17 -9 -6 -9 -22 2 -71 9 -34 13 -67 9 -72 -3 -5 2
-16 10 -25 21 -20 21 -55 1 -48 -8 4 -15 11 -15 18 0 6 -7 20 -16 31 -11 15
-17 17 -23 7 -6 -10 -12 -5 -21 17 -7 17 -17 31 -22 31 -5 0 -7 4 -4 9 4 5 1
20 -4 33 -10 22 -10 22 -6 1 3 -20 1 -21 -15 -12 -10 5 -19 7 -19 3 0 -3 -7
-1 -15 6 -27 23 -17 -11 12 -42 l27 -28 -29 10 c-17 6 -45 30 -63 52 -28 35
-32 47 -28 81 4 33 1 40 -15 44 -10 3 -19 8 -20 12 0 3 -2 14 -4 24 -4 19 3
21 25 7 9 -6 17 -5 23 3 7 9 10 9 14 -1 2 -6 8 -10 13 -7 5 3 16 -3 26 -12 17
-17 18 -17 11 1 -6 14 -4 17 10 12 15 -5 14 -3 -2 10 -14 11 -16 18 -7 21 17
7 15 23 -5 40 -10 8 -12 12 -5 8 8 -4 12 5 13 32 l1 38 17 -55 18 -55 8 35z
m3062 18 c-3 -8 -6 -5 -6 6 -1 11 2 17 5 13 3 -3 4 -12 1 -19z m-500 -24 c0
-21 -33 -41 -81 -50 -30 -5 -38 -4 -34 6 2 8 13 18 23 24 11 6 25 17 33 24 20
18 59 15 59 -4z m-2403 -60 c3 -8 2 -12 -4 -9 -6 3 -10 10 -10 16 0 14 7 11
14 -7z m2923 -61 c-3 -10 -5 -2 -5 17 0 19 2 27 5 18 2 -10 2 -26 0 -35z m-24
-20 c5 -26 4 -26 -9 -8 -16 22 -18 35 -5 35 5 0 11 -12 14 -27z m-2684 -64
c13 -11 22 -21 20 -24 -3 -2 -18 7 -34 20 -17 13 -25 24 -20 24 6 0 21 -9 34
-20z m-414 -99 c3 -5 2 -10 -4 -10 -5 0 -13 5 -16 10 -3 6 -2 10 4 10 5 0 13
-4 16 -10z m1909 -36 c-2 -26 -12 -56 -24 -71 -11 -14 -20 -34 -20 -44 0 -13
-5 -17 -17 -13 -14 5 -15 4 -4 -4 19 -13 9 -35 -28 -61 l-31 -22 2 23 c2 15
-2 22 -11 20 -9 -2 -11 2 -6 15 5 10 15 51 23 91 12 57 19 72 33 73 11 1 24 3
29 4 6 1 17 3 25 4 8 0 15 8 15 16 0 8 4 15 9 15 4 0 7 -21 5 -46z m-1911 1
c4 -8 2 -17 -3 -20 -6 -4 -10 3 -10 14 0 25 6 27 13 6z m211 -91 c3 -8 2 -12
-4 -9 -6 3 -10 10 -10 16 0 14 7 11 14 -7z m139 -211 c-7 -2 -19 -2 -25 0 -7
3 -2 5 12 5 14 0 19 -2 13 -5z m582 -64 c4 -12 -1 -36 -11 -57 -11 -22 -19
-66 -21 -107 l-3 -70 50 -55 50 -55 -6 41 c-4 30 -1 54 14 87 11 25 18 48 14
51 -3 4 5 5 19 4 18 -2 23 1 21 15 -3 15 8 20 34 16 4 0 11 5 16 13 7 9 8 5 3
-12 -34 -132 -44 -192 -35 -210 6 -11 15 -20 19 -20 5 0 12 -11 15 -25 5 -18
11 -23 24 -18 14 6 15 4 4 -9 -13 -16 -7 -48 9 -48 4 0 16 -12 24 -27 9 -16
14 -20 11 -10 -6 20 5 22 22 5 9 -9 12 -8 13 8 0 10 3 13 6 6 8 -20 23 -3 23
28 0 52 16 78 55 89 20 5 43 8 51 5 8 -2 21 -6 29 -9 11 -3 12 -10 6 -27 -5
-15 -4 -30 6 -44 12 -18 11 -23 -2 -34 -8 -7 -12 -17 -9 -22 3 -5 -4 -20 -16
-33 -14 -15 -21 -33 -18 -52 2 -23 -1 -28 -19 -27 -21 0 -21 -1 -7 -28 8 -15
28 -38 44 -50 17 -12 30 -28 30 -35 0 -8 4 -11 10 -8 5 3 7 0 5 -8 -3 -7 4
-24 15 -37 12 -14 24 -37 27 -52 3 -15 10 -26 16 -25 6 1 13 -7 15 -17 2 -11
10 -26 18 -34 16 -16 19 -52 4 -52 -5 0 -10 -5 -10 -10 0 -6 7 -6 19 2 15 9
22 8 36 -5 9 -9 12 -17 6 -17 -6 0 -11 -7 -11 -15 0 -8 8 -15 18 -15 36 0 32
-13 -10 -32 -22 -10 -43 -16 -46 -13 -25 25 -128 184 -155 240 -37 75 -78 189
-76 208 3 23 -1 36 -17 51 -20 20 -35 21 -28 1 4 -8 1 -15 -5 -15 -6 0 -11 11
-11 25 0 30 -16 33 -23 5 -5 -19 -8 -19 -73 15 -37 19 -70 35 -74 35 -3 0 -8
-26 -9 -57 -1 -32 -7 -62 -12 -68 -6 -6 -7 16 -3 63 l7 73 -40 42 c-44 46
-121 153 -147 204 -13 26 -14 44 -7 97 10 69 22 98 54 134 25 27 34 28 42 1z
m1981 -117 c32 -37 31 -86 -5 -137 -31 -45 -63 -50 -93 -14 -20 24 -25 99 -7
99 11 0 8 25 -7 63 -4 11 2 17 18 20 38 8 68 -2 94 -31z m-2113 -92 c3 8 3 2
0 -14 -4 -18 -2 -27 4 -23 10 6 8 -11 -21 -168 -27 -144 -36 -172 -31 -95 3
36 7 101 9 145 3 44 8 105 11 135 3 38 2 50 -5 40 -8 -12 -10 -11 -10 6 0 38
15 36 26 -2 7 -26 13 -34 17 -24z m13 23 c-11 -11 -17 4 -9 23 7 18 8 18 11 1
2 -10 1 -21 -2 -24z m539 14 c0 -26 -20 -25 -23 2 -3 16 1 22 10 19 7 -3 13
-12 13 -21z m167 -12 c-9 -11 -18 -22 -19 -24 -2 -3 -2 7 -1 20 1 16 8 25 20
25 16 0 16 -1 0 -21z m-765 -47 c-3 -8 -6 -5 -6 6 -1 11 2 17 5 13 3 -3 4 -12
1 -19z m626 -38 c-8 -8 -33 32 -27 42 4 6 12 -1 18 -14 7 -12 11 -25 9 -28z
m1910 -37 c-7 -2 -19 -2 -25 0 -7 3 -2 5 12 5 14 0 19 -2 13 -5z m-3023 -12
c0 -4 -11 -6 -25 -3 -14 2 -25 6 -25 8 0 2 11 4 25 4 14 0 25 -4 25 -9z m1227
-8 c6 -17 -35 -55 -49 -47 -9 6 -9 9 0 12 7 2 12 15 12 29 0 17 5 24 17 21 9
-2 18 -8 20 -15z m384 -19 c20 -25 93 -58 97 -45 2 6 20 11 39 11 26 0 43 7
60 27 21 22 28 25 44 15 12 -8 19 -8 19 -2 0 5 5 10 10 10 6 0 10 -18 10 -40
0 -25 -5 -40 -12 -40 -9 0 -12 -15 -10 -52 4 -61 -11 -108 -33 -108 -13 0 -16
-11 -15 -57 2 -100 -20 -213 -41 -213 -5 0 -14 -11 -20 -23 -14 -32 -89 -67
-172 -82 -95 -16 -123 -10 -131 26 -4 21 -11 29 -26 29 -11 0 -19 3 -19 8 3
16 -14 72 -22 72 -5 0 -9 9 -9 19 0 11 -6 26 -12 33 -15 15 -44 105 -53 162
l-6 38 37 -7 c21 -3 59 -18 86 -31 58 -30 123 -32 137 -5 12 21 -2 83 -23 103
-15 15 -27 105 -19 137 4 16 9 19 18 11 9 -7 16 -6 25 5 16 19 24 19 41 -1z
m-1496 -144 c8 -13 -15 -13 -35 0 -12 8 -11 10 7 10 12 0 25 -4 28 -10z m369
-117 c-10 -40 -14 -41 -14 -5 0 18 5 32 10 32 6 0 8 -11 4 -27z m-7 -75 c-3
-7 -5 -2 -5 12 0 14 2 19 5 13 2 -7 2 -19 0 -25z m-267 -12 c0 -3 -4 -8 -10
-11 -5 -3 -10 -1 -10 4 0 6 5 11 10 11 6 0 10 -2 10 -4z m-66 -27 c-10 -4 -28
-8 -39 -7 -15 0 -13 3 10 13 17 7 34 10 39 7 5 -3 1 -9 -10 -13z m333 -61 c-2
-18 -4 -6 -4 27 0 33 2 48 4 33 2 -15 2 -42 0 -60z m281 45 c0 -26 -3 -32 -9
-22 -7 13 -2 59 6 59 2 0 3 -17 3 -37z m-473 -13 c-3 -5 -12 -10 -18 -10 -7 0
-6 4 3 10 19 12 23 12 15 0z m-38 -16 c-3 -3 -12 -4 -19 -1 -8 3 -5 6 6 6 11
1 17 -2 13 -5z m500 -81 c-3 -10 -5 -4 -5 12 0 17 2 24 5 18 2 -7 2 -21 0 -30z
m-617 -27 c0 -2 -7 -7 -16 -10 -8 -3 -12 -2 -9 4 6 10 25 14 25 6z m347 -43
c-3 -10 -5 -2 -5 17 0 19 2 27 5 18 2 -10 2 -26 0 -35z m821 -139 c-3 -3 7
-19 23 -37 19 -20 25 -33 17 -36 -6 -2 -18 6 -26 18 -8 11 -23 21 -33 21 -21
0 -26 26 -6 33 17 7 31 8 25 1z m-1033 -74 c-3 -5 -14 -10 -23 -9 -14 0 -13 2
3 9 27 11 27 11 20 0z m225 -45 c0 -19 -4 -35 -10 -35 -5 0 -10 16 -10 35 0
19 5 35 10 35 6 0 10 -16 10 -35z m950 5 c0 -12 -17 -12 -45 0 -17 7 -15 9 13
9 17 1 32 -3 32 -9z m-1315 -20 c-3 -5 -14 -10 -23 -10 -15 0 -15 2 -2 10 20
13 33 13 25 0z m1715 -509 c0 -5 -7 -14 -15 -21 -16 -14 -18 -10 -9 14 6 17
24 22 24 7z m-60 -61 c0 -5 -7 -10 -16 -10 -8 0 -12 5 -9 10 3 6 10 10 16 10
5 0 9 -4 9 -10z m-740 -345 c-33 -19 -49 -19 -24 0 10 8 26 14 34 14 9 0 4 -6
-10 -14z m605 -775 c3 -5 1 -10 -4 -10 -6 0 -11 5 -11 10 0 6 2 10 4 10 3 0 8
-4 11 -10z"/>
<path d="M2488 5223 c7 -3 16 -2 19 1 4 3 -2 6 -13 5 -11 0 -14 -3 -6 -6z"/>
<path d="M2115 5180 c3 -5 13 -10 21 -10 8 0 12 5 9 10 -3 6 -13 10 -21 10 -8
0 -12 -4 -9 -10z"/>
<path d="M2178 5183 c7 -3 16 -2 19 1 4 3 -2 6 -13 5 -11 0 -14 -3 -6 -6z"/>
<path d="M2218 5163 c7 -3 16 -2 19 1 4 3 -2 6 -13 5 -11 0 -14 -3 -6 -6z"/>
<path d="M2088 5103 c7 -3 16 -2 19 1 4 3 -2 6 -13 5 -11 0 -14 -3 -6 -6z"/>
<path d="M2200 5034 c0 -2 9 -8 20 -14 11 -6 20 -7 20 -2 0 6 -9 12 -20 15
-11 3 -20 3 -20 1z"/>
<path d="M2017 4859 c7 -7 15 -10 18 -7 3 3 -2 9 -12 12 -14 6 -15 5 -6 -5z"/>
<path d="M2062 4824 c10 -10 20 -15 24 -12 3 4 -5 12 -18 18 -22 12 -22 12 -6
-6z"/>
<path d="M1860 4822 c0 -12 19 -26 26 -19 2 2 -2 10 -11 17 -9 8 -15 8 -15 2z"/>
<path d="M1900 4821 c0 -6 4 -13 10 -16 6 -3 7 1 4 9 -7 18 -14 21 -14 7z"/>
<path d="M1987 4776 c-4 -9 -3 -15 1 -15 4 1 14 1 22 0 12 -1 13 -3 1 -10 -8
-5 -9 -11 -3 -15 18 -11 21 22 3 38 -16 15 -19 15 -24 2z"/>
<path d="M1877 4769 c7 -7 15 -10 18 -7 3 3 -2 9 -12 12 -14 6 -15 5 -6 -5z"/>
<path d="M2110 4739 c0 -5 5 -7 10 -4 6 3 10 8 10 11 0 2 -4 4 -10 4 -5 0 -10
-5 -10 -11z"/>
<path d="M4185 4630 c4 -6 11 -8 16 -5 14 9 11 15 -7 15 -8 0 -12 -5 -9 -10z"/>
<path d="M4241 4574 c0 -11 3 -14 6 -6 3 7 2 16 -1 19 -3 4 -6 -2 -5 -13z"/>
<path d="M4250 4536 c0 -9 5 -16 10 -16 6 0 10 4 10 9 0 6 -4 13 -10 16 -5 3
-10 -1 -10 -9z"/>
<path d="M4280 4530 c0 -5 5 -10 11 -10 5 0 7 5 4 10 -3 6 -8 10 -11 10 -2 0
-4 -4 -4 -10z"/>
<path d="M1030 4640 c0 -5 5 -10 11 -10 5 0 7 5 4 10 -3 6 -8 10 -11 10 -2 0
-4 -4 -4 -10z"/>
<path d="M1510 4393 c0 -12 28 -38 34 -32 2 2 -5 13 -15 23 -11 11 -19 15 -19
9z"/>
<path d="M1460 4384 c0 -13 78 -114 89 -114 4 0 7 9 8 20 1 11 -3 18 -8 14
-11 -7 -39 13 -39 28 0 6 7 5 15 -2 24 -20 28 -6 5 15 -15 14 -20 15 -20 4 0
-8 -11 -1 -25 16 -13 17 -24 25 -25 19z"/>
<path d="M1385 4179 c3 -51 18 -109 40 -162 14 -35 29 -52 21 -24 -8 26 -25
104 -32 142 -5 34 -8 37 -15 20 -7 -16 -8 -14 -5 10 3 17 1 37 -4 44 -4 8 -7
-4 -5 -30z"/>
<path d="M2370 3159 c-12 -9 -12 -10 3 -5 11 3 17 0 17 -9 0 -16 17 -29 23
-18 2 5 -3 16 -12 25 -12 12 -21 14 -31 7z"/>
<path d="M3306 3141 c-4 -7 -5 -15 -2 -18 9 -9 19 4 14 18 -4 11 -6 11 -12 0z"/>
<path d="M2135 5690 c-38 -7 -19 -20 22 -15 19 2 33 -1 36 -9 6 -15 67 -20 67
-5 0 5 -4 9 -10 9 -5 0 -6 8 -3 18 6 14 4 15 -9 5 -8 -7 -18 -9 -22 -5 -9 9
-40 9 -81 2z"/>
<path d="M2027 5679 c-9 -6 -22 -7 -27 -4 -6 3 -10 1 -10 -4 0 -13 39 -14 59
-2 19 12 -1 21 -22 10z"/>
<path d="M2298 5683 c7 -3 16 -2 19 1 4 3 -2 6 -13 5 -11 0 -14 -3 -6 -6z"/>
<path d="M2465 5670 c-3 -5 -41 -10 -85 -10 -62 0 -79 -3 -84 -16 -4 -11 -2
-15 8 -11 8 3 17 -1 20 -9 7 -18 50 -18 66 1 14 17 40 20 40 5 0 -6 -7 -13
-15 -16 -22 -9 -18 -24 5 -24 11 0 20 5 20 11 0 6 12 9 27 7 28 -3 44 18 20
28 -9 3 -13 13 -10 25 6 20 -2 26 -12 9z"/>
<path d="M3360 5653 c0 -9 13 -13 40 -13 29 0 40 -4 40 -15 0 -8 7 -15 15 -15
8 0 15 7 15 15 0 12 14 15 65 15 l65 0 0 -40 c0 -29 4 -40 15 -40 11 0 15 11
15 40 0 29 -4 40 -15 40 -8 0 -15 6 -15 13 0 11 -27 14 -120 14 -93 0 -120 -3
-120 -14z"/>
<path d="M3135 5640 c27 -12 43 -12 25 0 -8 5 -22 9 -30 9 -10 0 -8 -3 5 -9z"/>
<path d="M1770 5630 c0 -5 5 -10 10 -10 6 0 10 5 10 10 0 6 -4 10 -10 10 -5 0
-10 -4 -10 -10z"/>
<path d="M2213 5600 c0 -25 2 -35 4 -22 2 12 2 32 0 45 -2 12 -4 2 -4 -23z"/>
<path d="M2723 5624 c16 -8 31 -13 35 -10 8 8 1 12 -33 20 l-30 6 28 -16z"/>
<path d="M1810 5613 c0 -10 -3 -29 -6 -43 -5 -17 -3 -22 4 -15 15 15 26 75 13
75 -6 0 -11 -8 -11 -17z"/>
<path d="M2125 5620 c-3 -5 -1 -10 4 -10 6 0 11 5 11 10 0 6 -2 10 -4 10 -3 0
-8 -4 -11 -10z"/>
<path d="M2895 5610 c-18 -8 -17 -9 8 -9 15 -1 27 4 27 9 0 12 -8 12 -35 0z"/>
<path d="M3185 5610 c-9 -15 -1 -23 21 -18 15 3 16 4 1 16 -11 9 -17 10 -22 2z"/>
<path d="M2270 5601 c0 -6 5 -13 10 -16 16 -10 12 -28 -5 -22 -8 4 -17 2 -20
-3 -3 -4 1 -11 7 -13 8 -4 7 -6 -3 -6 -22 -1 -32 -40 -12 -48 12 -5 12 -7 1
-15 -10 -8 -10 -9 1 -6 21 6 26 28 6 28 -9 0 -14 4 -10 9 3 6 22 8 43 6 20 -2
46 -4 57 -5 l20 -1 -20 -8 c-11 -5 -23 -7 -27 -4 -5 2 -8 -1 -8 -6 0 -6 -6
-11 -14 -11 -8 0 -17 -3 -20 -8 -6 -9 101 -9 110 1 4 4 23 7 43 6 37 -1 35 -3
-11 -13 -38 -9 -35 -23 5 -21 51 2 168 37 164 49 -2 6 -23 13 -48 16 -37 4
-40 6 -19 12 14 4 45 3 70 -2 25 -4 48 -6 52 -4 4 2 9 0 13 -6 3 -5 -1 -10 -9
-10 -8 0 -18 -5 -21 -11 -5 -7 4 -8 27 -4 18 3 51 8 73 10 52 4 55 6 25 14
-14 4 -24 13 -23 19 2 6 -4 9 -12 6 -8 -4 -15 -1 -15 5 0 6 -7 11 -15 11 -8 0
-12 6 -9 13 3 9 -6 13 -32 14 -20 1 -39 5 -43 11 -9 14 -55 22 -71 12 -15 -9
-13 -10 85 -45 22 -8 49 -16 60 -19 11 -3 -2 -3 -28 -1 -27 3 -54 8 -60 12 -7
4 -25 9 -42 10 -16 1 -47 4 -67 6 -21 2 -38 0 -38 -4 0 -4 -10 -10 -22 -12
-13 -2 -4 -5 20 -6 24 0 42 4 42 10 0 5 5 7 11 3 25 -15 -26 -26 -94 -21 -66
6 -87 16 -87 42 0 6 4 3 10 -5 5 -8 12 -11 16 -7 11 10 -16 36 -32 30 -8 -3
-14 0 -14 6 0 6 -4 11 -10 11 -5 0 -10 -4 -10 -9z m37 -57 c-3 -3 -12 -4 -19
-1 -8 3 -5 6 6 6 11 1 17 -2 13 -5z"/>
<path d="M2121 5584 c0 -11 3 -14 6 -6 3 7 2 16 -1 19 -3 4 -6 -2 -5 -13z"/>
<path d="M2186 5575 c-3 -8 -1 -15 4 -15 6 0 10 7 10 15 0 8 -2 15 -4 15 -2 0
-6 -7 -10 -15z"/>
<path d="M2380 5570 c0 -5 12 -10 28 -9 24 0 25 1 7 9 -27 12 -35 12 -35 0z"/>
<path d="M3735 5570 c-3 -5 1 -10 9 -10 9 0 16 5 16 10 0 6 -4 10 -9 10 -6 0
-13 -4 -16 -10z"/>
<path d="M2808 5543 c7 -3 16 -2 19 1 4 3 -2 6 -13 5 -11 0 -14 -3 -6 -6z"/>
<path d="M2018 5519 c-17 -18 -17 -19 5 -19 16 0 23 6 23 20 0 24 -6 24 -28
-1z"/>
<path d="M2100 5530 c0 -5 5 -10 11 -10 5 0 7 5 4 10 -3 6 -8 10 -11 10 -2 0
-4 -4 -4 -10z"/>
<path d="M2140 5500 c0 -5 7 -7 15 -4 8 4 15 8 15 10 0 2 -7 4 -15 4 -8 0 -15
-4 -15 -10z"/>
<path d="M1360 5470 c0 -5 5 -10 10 -10 6 0 10 5 10 10 0 6 -4 10 -10 10 -5 0
-10 -4 -10 -10z"/>
<path d="M1488 5463 c7 -3 16 -2 19 1 4 3 -2 6 -13 5 -11 0 -14 -3 -6 -6z"/>
<path d="M2010 5459 c0 -5 -5 -7 -12 -3 -7 4 -8 3 -4 -5 6 -9 11 -9 22 0 17
14 18 19 4 19 -5 0 -10 -5 -10 -11z"/>
<path d="M2200 5461 c0 -11 31 -24 39 -16 3 3 -1 10 -9 15 -19 12 -30 12 -30
1z"/>
<path d="M1425 5451 c-3 -5 -1 -12 5 -16 5 -3 10 1 10 9 0 18 -6 21 -15 7z"/>
<path d="M2280 5430 c-8 -5 -11 -12 -7 -17 5 -4 11 -3 15 3 4 6 14 14 22 17
13 5 13 5 0 6 -8 0 -22 -3 -30 -9z"/>
<path d="M2350 5425 c-7 -8 -9 -15 -6 -15 4 0 14 7 22 15 9 8 11 15 6 15 -5 0
-15 -7 -22 -15z"/>
<path d="M4055 5420 c3 -5 10 -10 16 -10 5 0 9 5 9 10 0 6 -7 10 -16 10 -8 0
-12 -4 -9 -10z"/>
<path d="M4105 5410 c-3 -5 1 -10 9 -10 9 0 16 5 16 10 0 6 -4 10 -9 10 -6 0
-13 -4 -16 -10z"/>
<path d="M1448 5398 c5 -5 16 -8 23 -6 8 3 3 7 -10 11 -17 4 -21 3 -13 -5z"/>
<path d="M2520 5400 c-23 -7 -9 -16 15 -10 6 2 24 6 40 10 l30 8 -30 0 c-16 0
-41 -4 -55 -8z"/>
<path d="M2427 5390 c-45 -8 -61 -20 -21 -16 16 2 39 4 52 5 12 0 22 6 22 11
0 6 -3 9 -7 9 -5 -1 -25 -5 -46 -9z"/>
<path d="M2295 5380 c-8 -13 15 -13 35 0 12 8 11 10 -7 10 -12 0 -25 -4 -28
-10z"/>
<path d="M1440 5370 c0 -5 5 -10 10 -10 6 0 10 5 10 10 0 6 -4 10 -10 10 -5 0
-10 -4 -10 -10z"/>
<path d="M2036 5323 c-6 -14 -5 -15 5 -6 7 7 10 15 7 18 -3 3 -9 -2 -12 -12z"/>
<path d="M1350 5300 c0 -5 5 -10 10 -10 6 0 10 5 10 10 0 6 -4 10 -10 10 -5 0
-10 -4 -10 -10z"/>
<path d="M4227 5273 c-3 -5 -1 -17 4 -28 7 -17 8 -17 8 8 1 27 -4 34 -12 20z"/>
<path d="M740 5050 c0 -5 5 -10 10 -10 6 0 10 5 10 10 0 6 -4 10 -10 10 -5 0
-10 -4 -10 -10z"/>
<path d="M750 4771 c0 -6 5 -13 10 -16 6 -3 10 1 10 9 0 9 -4 16 -10 16 -5 0
-10 -4 -10 -9z"/>
<path d="M615 4750 c-8 -13 4 -50 16 -50 5 0 9 9 9 20 0 11 5 20 10 20 6 0 10
5 10 10 0 13 -37 13 -45 0z"/>
<path d="M624 4671 c3 -5 15 -7 26 -4 28 7 25 13 -6 13 -14 0 -23 -4 -20 -9z"/>
<path d="M4430 4504 c0 -8 5 -12 10 -9 6 3 10 10 10 16 0 5 -4 9 -10 9 -5 0
-10 -7 -10 -16z"/>
<path d="M643 4391 c1 -52 0 -55 -33 -73 -34 -18 -34 -18 -8 -18 44 0 81 18
74 36 -4 9 -2 22 4 29 7 9 7 21 0 39 -8 21 -7 26 7 26 25 0 4 15 -22 15 -21 1
-23 -3 -22 -54z"/>
<path d="M4430 4416 c0 -9 5 -16 10 -16 6 0 10 4 10 9 0 6 -4 13 -10 16 -5 3
-10 -1 -10 -9z"/>
<path d="M647 4294 c6 -3 9 -16 7 -30 -2 -13 0 -33 6 -44 9 -16 8 -20 -5 -20
-9 0 -15 -9 -15 -25 0 -14 3 -25 8 -25 21 1 30 19 27 62 -3 37 -1 46 11 41 8
-3 14 0 14 7 0 18 -26 40 -47 39 -10 0 -13 -3 -6 -5z"/>
<path d="M670 4095 c-14 -16 -3 -20 19 -6 8 5 9 11 3 15 -5 3 -15 -1 -22 -9z"/>
<path d="M706 4045 c-5 -15 2 -25 20 -25 20 0 24 28 4 33 -10 3 -21 -1 -24 -8z"/>
<path d="M721 3994 c0 -11 3 -14 6 -6 3 7 2 16 -1 19 -3 4 -6 -2 -5 -13z"/>
<path d="M748 4003 c6 -2 18 -2 25 0 6 3 1 5 -13 5 -14 0 -19 -2 -12 -5z"/>
<path d="M1380 3719 c0 -5 5 -7 10 -4 6 3 10 8 10 11 0 2 -4 4 -10 4 -5 0 -10
-5 -10 -11z"/>
<path d="M1300 3703 c0 -16 2 -16 11 -3 8 12 10 9 6 -12 -2 -15 0 -25 4 -22 5
3 9 -1 9 -10 0 -17 50 -79 58 -71 3 3 14 -3 25 -12 15 -13 18 -14 12 -3 -15
28 -38 50 -46 45 -4 -3 -12 11 -18 31 -15 56 -61 98 -61 57z"/>
<path d="M1564 3049 c-3 -5 9 -9 25 -9 17 0 31 2 31 4 0 8 -51 13 -56 5z"/>
<path d="M2480 2876 c0 -8 5 -18 10 -21 6 -3 10 1 10 9 0 8 -4 18 -10 21 -5 3
-10 -1 -10 -9z"/>
<path d="M2511 2835 c0 -5 7 -26 14 -45 12 -32 14 -33 14 -9 1 14 -6 34 -14
45 -8 10 -14 15 -14 9z"/>
<path d="M1580 2786 c0 -2 7 -7 16 -10 8 -3 12 -2 9 4 -6 10 -25 14 -25 6z"/>
<path d="M1595 2670 c-3 -5 1 -10 10 -10 9 0 13 5 10 10 -3 6 -8 10 -10 10 -2
0 -7 -4 -10 -10z"/>
<path d="M1728 2313 c7 -3 16 -2 19 1 4 3 -2 6 -13 5 -11 0 -14 -3 -6 -6z"/>
<path d="M2008 2224 c2 -19 7 -34 11 -34 9 0 1 59 -8 64 -4 3 -5 -11 -3 -30z"/>
<path d="M4511 2191 c-8 -5 -9 -11 -3 -15 5 -3 12 1 16 9 6 17 6 18 -13 6z"/>
<path d="M2815 2171 c-3 -5 -1 -12 5 -16 5 -3 10 1 10 9 0 18 -6 21 -15 7z"/>
<path d="M3120 2057 c0 -9 -4 -17 -10 -17 -5 0 -10 -7 -10 -15 0 -8 4 -15 9
-15 10 0 25 50 16 58 -3 3 -5 -2 -5 -11z"/>
<path d="M3060 1520 c0 -33 3 -40 20 -40 17 0 20 7 20 40 0 33 -3 40 -20 40
-17 0 -20 -7 -20 -40z"/>
<path d="M3020 1440 c0 -22 5 -40 10 -40 6 0 10 18 10 40 0 22 -4 40 -10 40
-5 0 -10 -18 -10 -40z"/>
<path d="M2440 1196 c0 -7 11 -25 25 -39 44 -43 89 -42 65 2 -21 41 -90 69
-90 37z"/>
<path d="M2665 980 c3 -5 8 -10 11 -10 2 0 4 5 4 10 0 6 -5 10 -11 10 -5 0 -7
-4 -4 -10z"/>
<path d="M3155 570 c3 -5 10 -10 16 -10 5 0 9 5 9 10 0 6 -7 10 -16 10 -8 0
-12 -4 -9 -10z"/>
<path d="M91 176 c-9 -11 -9 -16 1 -22 7 -4 10 -4 6 1 -4 4 -3 14 3 22 6 7 9
13 6 13 -2 0 -10 -6 -16 -14z"/>
<path d="M133 175 c0 -8 4 -12 9 -9 5 3 6 10 3 15 -9 13 -12 11 -12 -6z"/>
<path d="M676 122 c-2 -4 4 -8 14 -8 10 0 16 4 14 8 -3 4 -9 8 -14 8 -5 0 -11
-4 -14 -8z"/>
<path d="M597 69 c7 -7 15 -10 18 -7 3 3 -2 9 -12 12 -14 6 -15 5 -6 -5z"/>
</g>
</svg>
